<svg width="92" height="68" viewBox="0 0 92 68" fill="none" xmlns="http://www.w3.org/2000/svg">
<path d="M12.2667 64.6667V67.7334H18.4V64.6667H12.2667ZM42.9333 64.6667V67.7334H49.0667V64.6667H42.9333ZM18.4 64.6667V61.6001H12.2667V64.6667H18.4ZM42.9333 61.6001V64.6667H49.0667V61.6001H42.9333ZM30.6667 49.3334C33.92 49.3334 37.0401 50.6258 39.3405 52.9262C41.641 55.2267 42.9333 58.3467 42.9333 61.6001H49.0667C49.0667 56.7201 47.1281 52.04 43.6774 48.5893C40.2268 45.1386 35.5466 43.2001 30.6667 43.2001V49.3334ZM18.4 61.6001C18.4 58.3467 19.6924 55.2267 21.9928 52.9262C24.2933 50.6258 27.4133 49.3334 30.6667 49.3334V43.2001C25.7867 43.2001 21.1066 45.1386 17.6559 48.5893C14.2052 52.04 12.2667 56.7201 12.2667 61.6001H18.4ZM30.6667 12.5334C27.4133 12.5334 24.2933 13.8258 21.9928 16.1262C19.6924 18.4267 18.4 21.5467 18.4 24.8001H24.5333C24.5333 23.1734 25.1795 21.6134 26.3297 20.4631C27.48 19.3129 29.04 18.6667 30.6667 18.6667V12.5334ZM42.9333 24.8001C42.9333 21.5467 41.641 18.4267 39.3405 16.1262C37.0401 13.8258 33.92 12.5334 30.6667 12.5334V18.6667C32.2933 18.6667 33.8534 19.3129 35.0036 20.4631C36.1538 21.6134 36.8 23.1734 36.8 24.8001H42.9333ZM30.6667 37.0667C33.92 37.0667 37.0401 35.7743 39.3405 33.4739C41.641 31.1735 42.9333 28.0534 42.9333 24.8001H36.8C36.8 26.4267 36.1538 27.9868 35.0036 29.137C33.8534 30.2872 32.2933 30.9334 30.6667 30.9334V37.0667ZM30.6667 30.9334C29.04 30.9334 27.48 30.2872 26.3297 29.137C25.1795 27.9868 24.5333 26.4267 24.5333 24.8001H18.4C18.4 28.0534 19.6924 31.1735 21.9928 33.4739C24.2933 35.7743 27.4133 37.0667 30.6667 37.0667V30.9334ZM9.2 6.40006H82.8V0.266724H9.2V6.40006ZM85.8667 9.46672V58.5334H92V9.46672H85.8667ZM82.8 61.6001H9.2V67.7334H82.8V61.6001ZM6.13333 58.5334V9.46672H0V58.5334H6.13333ZM9.2 61.6001C8.38667 61.6001 7.60665 61.277 7.03154 60.7019C6.45643 60.1267 6.13333 59.3467 6.13333 58.5334H0C0 60.9734 0.969283 63.3134 2.69462 65.0388C4.41995 66.7641 6.76001 67.7334 9.2 67.7334V61.6001ZM85.8667 58.5334C85.8667 59.3467 85.5436 60.1267 84.9685 60.7019C84.3933 61.277 83.6133 61.6001 82.8 61.6001V67.7334C85.24 67.7334 87.58 66.7641 89.3054 65.0388C91.0307 63.3134 92 60.9734 92 58.5334H85.8667ZM82.8 6.40006C83.6133 6.40006 84.3933 6.72315 84.9685 7.29826C85.5436 7.87337 85.8667 8.65339 85.8667 9.46672H92C92 7.02673 91.0307 4.68668 89.3054 2.96134C87.58 1.23601 85.24 0.266724 82.8 0.266724V6.40006ZM9.2 0.266724C6.76001 0.266724 4.41995 1.23601 2.69462 2.96134C0.969283 4.68668 0 7.02673 0 9.46672H6.13333C6.13333 8.65339 6.45643 7.87337 7.03154 7.29826C7.60665 6.72315 8.38667 6.40006 9.2 6.40006V0.266724ZM55.2 24.8001H73.6V18.6667H55.2V24.8001ZM55.2 43.2001H73.6V37.0667H55.2V43.2001Z" fill="white"/>
</svg>
