<svg width="25" height="25" viewBox="0 0 25 25" fill="none" xmlns="http://www.w3.org/2000/svg">
<g clip-path="url(#clip0_158_86)">
<path d="M15.9722 18.0556C15.9722 18.2398 15.8991 18.4164 15.7689 18.5466C15.6386 18.6769 15.462 18.75 15.2778 18.75H5.55558C5.4028 18.75 5.25697 18.8889 5.13197 18.9792L2.7778 20.8334V9.72225C2.7778 9.53807 2.85097 9.36144 2.9812 9.2312C3.11144 9.10097 3.28807 9.0278 3.47225 9.0278H6.1528V7.63892H3.47225C2.91971 7.63892 2.38981 7.85841 1.99911 8.24911C1.60841 8.63981 1.38892 9.16971 1.38892 9.72225V22.2222C1.38995 22.3512 1.42688 22.4774 1.49557 22.5865C1.56425 22.6957 1.66198 22.7836 1.7778 22.8403C1.88939 22.891 2.01241 22.9114 2.13438 22.8992C2.25636 22.887 2.37292 22.8427 2.47225 22.7709L6.04864 20.1389H15.382C15.6452 20.1467 15.9072 20.1004 16.1517 20.0028C16.3963 19.9052 16.6182 19.7584 16.8038 19.5716C16.9893 19.3847 17.1345 19.1618 17.2304 18.9166C17.3263 18.6713 17.3708 18.409 17.3611 18.1459V17.3611H15.9722V18.0556Z" fill="#D2AC67"/>
<path d="M21.5278 2.77783H9.72225C9.16971 2.77783 8.63981 2.99733 8.24911 3.38803C7.85841 3.77873 7.63892 4.30863 7.63892 4.86117V13.1945C7.63892 13.747 7.85841 14.2769 8.24911 14.6676C8.63981 15.0583 9.16971 15.2778 9.72225 15.2778H19.132L22.4514 17.8542C22.5501 17.9272 22.6663 17.9727 22.7883 17.9861C22.9103 17.9995 23.0337 17.9804 23.1459 17.9306C23.264 17.8743 23.3639 17.7858 23.4339 17.6752C23.504 17.5646 23.5413 17.4365 23.5417 17.3056V4.86117C23.542 4.32046 23.3321 3.80081 22.9563 3.41204C22.5804 3.02328 22.0682 2.79586 21.5278 2.77783ZM22.2222 15.9306L19.7917 14.0348C19.6705 13.9407 19.5215 13.8894 19.3681 13.8889H9.72225C9.53807 13.8889 9.36144 13.8158 9.2312 13.6855C9.10097 13.5553 9.0278 13.3787 9.0278 13.1945V4.86117C9.0278 4.67699 9.10097 4.50035 9.2312 4.37012C9.36144 4.23989 9.53807 4.16672 9.72225 4.16672H21.5278C21.7134 4.18357 21.8865 4.26771 22.0144 4.40329C22.1423 4.53887 22.2162 4.71654 22.2222 4.90283V15.9306Z" fill="#D2AC67"/>
</g>
<defs>
<clipPath id="clip0_158_86">
<rect width="25" height="25" fill="white"/>
</clipPath>
</defs>
</svg>
