<svg width="79" height="63" viewBox="0 0 79 63" fill="none" xmlns="http://www.w3.org/2000/svg">
<path d="M65.6562 62.5H13.3438C10.127 62.5002 7.03204 61.2695 4.69386 59.0603C2.35567 56.8511 0.951495 53.8309 0.769376 50.6193L0.75 49.9062V9.21875C0.749729 7.00951 1.58815 4.88254 3.09581 3.26771C4.60347 1.65287 6.66794 0.670586 8.872 0.519376L9.46875 0.5H57.9062C60.1155 0.499729 62.2425 1.33814 63.8573 2.84581C65.4721 4.35347 66.4544 6.41794 66.6056 8.622L66.625 9.21875V12.125H69.5312C71.7405 12.1247 73.8675 12.9631 75.4823 14.4708C77.0971 15.9785 78.0794 18.0429 78.2306 20.247L78.25 20.8438V49.9062C78.2502 53.123 77.0195 56.218 74.8103 58.5561C72.6011 60.8943 69.5809 62.2985 66.3692 62.4806L65.6562 62.5ZM13.3438 56.6875H65.6562C67.3587 56.6874 68.9989 56.0468 70.2509 54.8932C71.5029 53.7395 72.2751 52.1572 72.4142 50.4604L72.4375 49.9062V20.8438C72.4375 20.1415 72.1831 19.4629 71.7215 18.9336C71.2599 18.4044 70.6223 18.0601 69.9265 17.9646L69.5312 17.9375H66.625V47.9688C66.625 48.671 66.3706 49.3496 65.909 49.8789C65.4474 50.4081 64.8098 50.7524 64.114 50.8479L63.7188 50.875C63.0165 50.875 62.3379 50.6206 61.8086 50.159C61.2794 49.6974 60.9351 49.0598 60.8396 48.364L60.8125 47.9688V9.21875C60.8125 8.51645 60.5581 7.83793 60.0965 7.30864C59.6349 6.77936 58.9973 6.43514 58.3015 6.33962L57.9062 6.3125H9.46875C8.76645 6.31253 8.08792 6.56687 7.55864 7.02847C7.02936 7.49008 6.68514 8.12773 6.58962 8.8235L6.5625 9.21875V49.9062C6.56256 51.6081 7.20254 53.2477 8.35538 54.4996C9.50823 55.7515 11.0897 56.5242 12.7857 56.6642L13.3438 56.6875ZM40.4533 41.1875H52.1015C52.8378 41.1877 53.5466 41.4674 54.0847 41.9701C54.6227 42.4728 54.9499 43.161 55.0001 43.8957C55.0503 44.6303 54.8198 45.3566 54.3551 45.9278C53.8904 46.499 53.2262 46.8725 52.4967 46.9729L52.1015 47H40.4533C39.7169 46.9998 39.0081 46.7201 38.4701 46.2174C37.932 45.7147 37.6048 45.0265 37.5546 44.2918C37.5045 43.5572 37.735 42.8309 38.1997 42.2597C38.6644 41.6885 39.3285 41.315 40.058 41.2146L40.4533 41.1875ZM28.8166 27.6444C29.5874 27.6444 30.3266 27.9506 30.8717 28.4956C31.4167 29.0406 31.7229 29.7798 31.7229 30.5506V44.0938C31.7229 44.8645 31.4167 45.6037 30.8717 46.1488C30.3266 46.6938 29.5874 47 28.8166 47H15.2735C14.5027 47 13.7635 46.6938 13.2185 46.1488C12.6734 45.6037 12.3673 44.8645 12.3673 44.0938V30.5506C12.3673 29.7798 12.6734 29.0406 13.2185 28.4956C13.7635 27.9506 14.5027 27.6444 15.2735 27.6444H28.8166ZM25.9104 33.4569H18.1798V41.1875H25.9104V33.4569ZM40.4533 27.6444H52.1015C52.8378 27.6446 53.5466 27.9243 54.0847 28.427C54.6227 28.9297 54.9499 29.6179 55.0001 30.3525C55.0503 31.0872 54.8198 31.8135 54.3551 32.3847C53.8904 32.9559 53.2262 33.3294 52.4967 33.4298L52.1015 33.4569H40.4533C39.7117 33.4644 38.9953 33.1882 38.4507 32.6847C37.9062 32.1812 37.5747 31.4886 37.5242 30.7487C37.4737 30.0088 37.7079 29.2776 38.179 28.7048C38.6501 28.132 39.3223 27.7609 40.058 27.6676L40.4533 27.6444ZM15.2735 14.0702H52.1015C52.8431 14.0627 53.5595 14.339 54.104 14.8424C54.6486 15.3459 54.98 16.0385 55.0306 16.7784C55.0811 17.5183 54.8468 18.2495 54.3758 18.8223C53.9047 19.3951 53.2325 19.7662 52.4967 19.8595L52.1015 19.8827H15.2735C14.5372 19.8825 13.8284 19.6028 13.2903 19.1001C12.7523 18.5974 12.4251 17.9092 12.3749 17.1746C12.3247 16.44 12.5552 15.7137 13.0199 15.1425C13.4846 14.5713 14.1488 14.1977 14.8783 14.0974L15.2735 14.0702Z" fill="white"/>
</svg>
