<svg width="78" height="62" viewBox="0 0 78 62" fill="none" xmlns="http://www.w3.org/2000/svg">
<path d="M8.33335 61.6667C6.22502 61.6667 4.4208 60.9167 2.92069 59.4165C1.42058 57.9164 0.669243 56.1109 0.666687 54V8.00004C0.666687 5.89171 1.41802 4.08748 2.92069 2.58737C4.42335 1.08726 6.22758 0.33593 8.33335 0.333374H31.3334L39 8.00004H69.6667C71.775 8.00004 73.5805 8.75137 75.0832 10.254C76.5859 11.7567 77.3359 13.5609 77.3334 15.6667V54C77.3334 56.1084 76.5833 57.9139 75.0832 59.4165C73.5831 60.9192 71.7776 61.6693 69.6667 61.6667H8.33335ZM8.33335 54H69.6667V15.6667H35.8375L28.1709 8.00004H8.33335V54Z" fill="white"/>
</svg>
