<svg width="111" height="37" viewBox="0 0 111 37" fill="none" xmlns="http://www.w3.org/2000/svg">
<path d="M90.8955 20.0988C89.2809 20.0988 87.7025 20.5776 86.36 21.4747C85.0174 22.3717 83.971 23.6467 83.3531 25.1385C82.7352 26.6302 82.5736 28.2717 82.8886 29.8553C83.2036 31.439 83.9811 32.8936 85.1228 34.0353C86.2646 35.1771 87.7192 35.9546 89.3028 36.2696C90.8865 36.5846 92.5279 36.4229 94.0197 35.805C95.5114 35.1871 96.7864 34.1408 97.6835 32.7982C98.5805 31.4557 99.0593 29.8773 99.0593 28.2626C99.0566 26.0983 98.1956 24.0234 96.6652 22.493C95.1348 20.9626 93.0599 20.1016 90.8955 20.0988ZM90.8955 34.7119C89.6206 34.7119 88.3742 34.3338 87.3141 33.6255C86.254 32.9171 85.4277 31.9104 84.9398 30.7324C84.4519 29.5545 84.3242 28.2584 84.5729 27.0079C84.8216 25.7574 85.4356 24.6088 86.3371 23.7072C87.2386 22.8056 88.3873 22.1916 89.6377 21.9429C90.8882 21.6941 92.1844 21.8217 93.3623 22.3096C94.5403 22.7975 95.5471 23.6237 96.2554 24.6838C96.9638 25.7439 97.3419 26.9902 97.342 28.2652C97.3423 29.112 97.1759 29.9506 96.8521 30.733C96.5283 31.5155 96.0535 32.2264 95.4548 32.8253C94.8562 33.4242 94.1454 33.8993 93.3631 34.2235C92.5808 34.5476 91.7423 34.7144 90.8955 34.7144V34.7119ZM92.9585 28.2652C92.9585 28.6732 92.8376 29.0721 92.6109 29.4114C92.3843 29.7507 92.0621 30.0151 91.6852 30.1713C91.3082 30.3275 90.8934 30.3684 90.4932 30.2888C90.093 30.2092 89.7254 30.0128 89.4369 29.7243C89.1483 29.4358 88.9518 29.0682 88.8722 28.668C88.7926 28.2678 88.8334 27.853 88.9896 27.476C89.1457 27.0991 89.4101 26.7768 89.7494 26.5502C90.0886 26.3235 90.4875 26.2025 90.8955 26.2025C91.4426 26.2025 91.9673 26.4198 92.3542 26.8066C92.7411 27.1934 92.9584 27.7181 92.9585 28.2652ZM31.2417 28.2652C31.2416 26.6506 30.7628 25.0722 29.8657 23.7297C28.9686 22.3872 27.6936 21.3409 26.2019 20.723C24.7102 20.1051 23.0687 19.9435 21.4851 20.2585C19.9015 20.5735 18.4469 21.351 17.3052 22.4927C16.1634 23.6345 15.3859 25.0891 15.0709 26.6727C14.7559 28.2563 14.9175 29.8978 15.5354 31.3895C16.1533 32.8812 17.1996 34.1562 18.5421 35.0533C19.8846 35.9504 21.463 36.4292 23.0776 36.4293C25.242 36.4265 27.317 35.5655 28.8475 34.0351C30.378 32.5046 31.239 30.4296 31.2417 28.2652ZM23.0776 34.7119C21.8026 34.7118 20.5563 34.3337 19.4962 33.6254C18.4362 32.917 17.6099 31.9102 17.1221 30.7323C16.6342 29.5544 16.5065 28.2582 16.7553 27.0077C17.004 25.7573 17.618 24.6086 18.5195 23.7071C19.4211 22.8056 20.5697 22.1916 21.8201 21.9429C23.0706 21.6941 24.3668 21.8218 25.5447 22.3096C26.7226 22.7975 27.7294 23.6238 28.4378 24.6838C29.1461 25.7439 29.5243 26.9902 29.5243 28.2652C29.5247 29.112 29.3582 29.9506 29.0344 30.7331C28.7106 31.5155 28.2358 32.2265 27.6371 32.8254C27.0384 33.4243 26.3276 33.8994 25.5453 34.2235C24.763 34.5477 23.9244 34.7145 23.0776 34.7144V34.7119ZM103.368 29.6397C103.57 27.937 103.421 26.2111 102.93 24.5683C102.439 22.9255 101.616 21.4007 100.513 20.0881C99.4098 18.7755 98.0494 17.7029 96.5156 16.9364C94.9818 16.1699 93.3073 15.7258 91.5953 15.6316C89.8832 15.5373 88.1701 15.7949 86.5614 16.3883C84.9528 16.9818 83.4828 17.8986 82.2422 19.0822C81.0016 20.2658 80.0167 21.691 79.3483 23.27C78.6798 24.8489 78.342 26.5481 78.3557 28.2626C78.3538 30.1644 78.7868 32.0414 79.6217 33.7501H34.3515C35.215 31.9786 35.6491 30.0287 35.6186 28.0581C35.5882 26.0876 35.094 24.152 34.1761 22.408C33.2582 20.6641 31.9424 19.1609 30.3354 18.0202C28.7283 16.8795 26.8752 16.1333 24.926 15.8422C22.9769 15.5511 20.9866 15.7233 19.1164 16.3446C17.2461 16.966 15.5486 18.0192 14.1612 19.4188C12.7738 20.8185 11.7356 22.5253 11.1307 24.4009C10.5259 26.2765 10.3713 28.2683 10.6795 30.2148C4.72558 27.7132 0.880859 23.621 0.880859 17.1487C0.880859 10.4443 21.0713 1.01443 33.9131 0.57074V8.49493C33.9131 10.0255 34.5211 11.4934 35.6034 12.5757C36.6857 13.658 38.1536 14.266 39.6842 14.266H50.7281C52.092 14.2639 53.4108 13.7778 54.4497 12.8943C55.4887 12.0108 56.1802 10.7871 56.4013 9.44135C56.4013 9.44135 56.0248 4.40524 54.8178 3.51041L55.6097 2.92006L61.298 9.44647H83.1698C98.0434 9.44135 110.119 14.8898 110.119 21.5942C110.119 24.6887 107.569 27.4968 103.368 29.6397ZM25.1406 28.2626C25.1406 28.6707 25.0196 29.0695 24.7929 29.4088C24.5662 29.748 24.244 30.0124 23.8671 30.1686C23.4901 30.3247 23.0753 30.3656 22.6751 30.286C22.275 30.2064 21.9074 30.0099 21.6189 29.7214C21.3304 29.4329 21.1339 29.0653 21.0543 28.6651C20.9747 28.2649 21.0155 27.8501 21.1717 27.4732C21.3278 27.0962 21.5922 26.774 21.9315 26.5473C22.2707 26.3207 22.6696 26.1997 23.0776 26.1997C23.3487 26.1997 23.6172 26.2531 23.8677 26.3569C24.1181 26.4608 24.3457 26.613 24.5373 26.8048C24.7289 26.9966 24.8808 27.2244 24.9843 27.475C25.0878 27.7255 25.1409 27.9941 25.1406 28.2652V28.2626Z" fill="white"/>
</svg>
