<svg width="72" height="66" viewBox="0 0 72 66" fill="none" xmlns="http://www.w3.org/2000/svg">
<path d="M39.3746 3.375V9H43.8071C45.1751 9 46.5206 9.36 47.7086 10.0395L53.5136 13.3515C53.6846 13.4505 53.8736 13.5 54.0716 13.5H64.1246C65.0197 13.5 65.8781 13.8556 66.5111 14.4885C67.144 15.1214 67.4996 15.9799 67.4996 16.875C67.4996 17.7701 67.144 18.6286 66.5111 19.2615C65.8781 19.8944 65.0197 20.25 64.1246 20.25H62.2031L71.7026 41.364C71.9833 41.9887 72.0674 42.6839 71.9436 43.3575C71.8198 44.031 71.494 44.651 71.0096 45.135L68.6246 42.75L71.0051 45.1395L71.0006 45.1485L70.9916 45.1575L70.9646 45.1845L70.9376 45.207L70.8926 45.252L70.6901 45.432C69.7451 46.224 68.7056 46.9035 67.6031 47.457C65.5016 48.51 62.4596 49.5 58.4996 49.5C55.3474 49.5372 52.2301 48.8376 49.3961 47.457C48.2922 46.9038 47.2562 46.2242 46.3091 45.432L46.1066 45.252L46.0346 45.1845L46.0076 45.1575L45.9896 45.1395V45.135C45.5051 44.651 45.1794 44.031 45.0556 43.3575C44.9318 42.6839 45.0159 41.9887 45.2966 41.364L54.8006 20.25H54.0716C52.6991 20.25 51.3536 19.8945 50.1656 19.2105L44.3606 15.8985C44.1911 15.8003 43.9985 15.749 43.8026 15.75H39.3746V58.5H50.6246C51.5197 58.5 52.3781 58.8556 53.0111 59.4885C53.644 60.1215 53.9996 60.9799 53.9996 61.875C53.9996 62.7701 53.644 63.6285 53.0111 64.2615C52.3781 64.8944 51.5197 65.25 50.6246 65.25H21.3746C20.4795 65.25 19.621 64.8944 18.9881 64.2615C18.3552 63.6285 17.9996 62.7701 17.9996 61.875C17.9996 60.9799 18.3552 60.1215 18.9881 59.4885C19.621 58.8556 20.4795 58.5 21.3746 58.5H32.6246V15.75H28.1966C28.0007 15.749 27.8081 15.8003 27.6386 15.8985L21.8381 19.215C20.6456 19.89 19.3001 20.25 17.9276 20.25H17.1986L26.7026 41.364C26.9833 41.9887 27.0673 42.6839 26.9436 43.3575C26.8198 44.031 26.494 44.651 26.0096 45.135L23.6246 42.75L26.0051 45.1395L26.0006 45.1485L25.9916 45.1575L25.9646 45.1845L25.8926 45.252L25.6901 45.432C24.7451 46.224 23.7056 46.9035 22.6031 47.457C20.5016 48.51 17.4596 49.5 13.4996 49.5C10.3474 49.5372 7.23008 48.8376 4.39608 47.457C3.29216 46.9038 2.25622 46.2242 1.30908 45.432L1.10658 45.252L1.03458 45.1845L1.00758 45.1575L0.98958 45.1395V45.135C0.505118 44.651 0.179367 44.031 0.055588 43.3575C-0.0681906 42.6839 0.0158609 41.9887 0.29658 41.364L9.80058 20.25H7.87458C6.97947 20.25 6.12103 19.8944 5.48809 19.2615C4.85516 18.6286 4.49958 17.7701 4.49958 16.875C4.49958 15.9799 4.85516 15.1214 5.48809 14.4885C6.12103 13.8556 6.97947 13.5 7.87458 13.5H17.9276C18.1249 13.5009 18.3189 13.4497 18.4901 13.3515L24.2861 10.035C25.4786 9.36 26.8241 9 28.1966 9H32.6246V3.375C32.6246 2.47989 32.9802 1.62145 33.6131 0.988515C34.246 0.355579 35.1045 0 35.9996 0C36.8947 0 37.7531 0.355579 38.3861 0.988515C39.019 1.62145 39.3746 2.47989 39.3746 3.375ZM52.6271 41.5215C53.9096 42.129 55.8581 42.75 58.4996 42.75C61.1411 42.75 63.0896 42.129 64.3721 41.5215L58.4996 28.4715L52.6271 41.5215ZM7.62708 41.5215C8.90958 42.129 10.8581 42.75 13.4996 42.75C16.1411 42.75 18.0896 42.129 19.3721 41.5215L13.4996 28.4715L7.62708 41.5215Z" fill="white"/>
</svg>
